<svg class="ngrok-demo" xmlns="http://www.w3.org/2000/svg" xmlns:xlink="http://www.w3.org/1999/xlink" viewBox="0 0 680 540">
  <defs>
    <filter id="ngrok-demo-a" width="108.3%" height="115.6%" x="-3.3%" y="-6.2%" filterUnits="objectBoundingBox">
      <feOffset dx="5" dy="5" in="SourceAlpha" result="shadowOffsetOuter1"/>
      <feGaussianBlur in="shadowOffsetOuter1" result="shadowBlurOuter1" stdDeviation="10"/>
      <feColorMatrix in="shadowBlurOuter1" result="shadowMatrixOuter1" values="0 0 0 0 0.2   0 0 0 0 0.2   0 0 0 0 0.2  0 0 0 0.5 0"/>
      <feMerge>
        <feMergeNode in="shadowMatrixOuter1"/>
        <feMergeNode in="SourceGraphic"/>
      </feMerge>
    </filter>
    <rect id="ngrok-demo-b" width="600" height="320" rx="10"/>
    <path id="ngrok-demo-c" d="M10,0 L590,0 L590,0 C595.522847,-1.01453063e-15 600,4.4771525 600,10 L600,32 L0,32 L0,10 L0,10 C-6.76353751e-16,4.4771525 4.4771525,1.01453063e-15 10,0 Z"/>
    <rect id="ngrok-demo-d" width="400" height="20" x="100" y="6" rx="4"/>
    <filter id="ngrok-demo-e" width="108.3%" height="115.6%" x="-4.2%" y="-6.2%" filterUnits="objectBoundingBox">
      <feOffset dy="5" in="SourceAlpha" result="shadowOffsetOuter1"/>
      <feGaussianBlur in="shadowOffsetOuter1" result="shadowBlurOuter1" stdDeviation="10"/>
      <feColorMatrix in="shadowBlurOuter1" result="shadowMatrixOuter1" values="0 0 0 0 0.2   0 0 0 0 0.2   0 0 0 0 0.2  0 0 0 0.5 0"/>
      <feMerge>
        <feMergeNode in="shadowMatrixOuter1"/>
        <feMergeNode in="SourceGraphic"/>
      </feMerge>
    </filter>
    <rect id="ngrok-demo-f" width="600" height="320" rx="10"/>
  </defs>

  <g fill="none" fill-rule="evenodd">
    <g class="browser" filter="url(#ngrok-demo-a)">
      <use fill="#FFF" xlink:href="#ngrok-demo-b"/>
      <rect width="599" height="319" x=".5" y=".5" stroke="#BBB" rx="10"/>
      <use fill="#F5F5F5" xlink:href="#ngrok-demo-c"/>
      <path stroke="#BBB" d="M0.5,31.5 L599.5,31.5 L599.5,10 C599.5,4.75329488 595.246705,0.5 590,0.5 L10,0.5 C4.75329488,0.5 0.5,4.75329488 0.5,10 L0.5,31.5 Z"/>
      <use fill="#FFF" xlink:href="#ngrok-demo-d"/>
      <rect width="399" height="19" x="100.5" y="6.5" stroke="#BBB" rx="4"/>
      <text fill="#222" font-family="Ubuntu" font-size="14">
        <tspan class="url" x="105" y="21">https://katesapp.ngrok.io</tspan>
      </text>
      <path fill="#BBB" fill-rule="nonzero" d="M16,22.5 C12.4101491,22.5 9.5,19.5898509 9.5,16 C9.5,12.4101491 12.4101491,9.5 16,9.5 C19.5898509,9.5 22.5,12.4101491 22.5,16 C22.5,19.5898509 19.5898509,22.5 16,22.5 Z M16,21.5 C19.0375661,21.5 21.5,19.0375661 21.5,16 C21.5,12.9624339 19.0375661,10.5 16,10.5 C12.9624339,10.5 10.5,12.9624339 10.5,16 C10.5,19.0375661 12.9624339,21.5 16,21.5 Z M34,22.5 C30.4101491,22.5 27.5,19.5898509 27.5,16 C27.5,12.4101491 30.4101491,9.5 34,9.5 C37.5898509,9.5 40.5,12.4101491 40.5,16 C40.5,19.5898509 37.5898509,22.5 34,22.5 Z M34,21.5 C37.0375661,21.5 39.5,19.0375661 39.5,16 C39.5,12.9624339 37.0375661,10.5 34,10.5 C30.9624339,10.5 28.5,12.9624339 28.5,16 C28.5,19.0375661 30.9624339,21.5 34,21.5 Z M52,22.5 C48.4101491,22.5 45.5,19.5898509 45.5,16 C45.5,12.4101491 48.4101491,9.5 52,9.5 C55.5898509,9.5 58.5,12.4101491 58.5,16 C58.5,19.5898509 55.5898509,22.5 52,22.5 Z M52,21.5 C55.0375661,21.5 57.5,19.0375661 57.5,16 C57.5,12.9624339 55.0375661,10.5 52,10.5 C48.9624339,10.5 46.5,12.9624339 46.5,16 C46.5,19.0375661 48.9624339,21.5 52,21.5 Z"/>
      <g class="kates-site" fill="#BBB">
        <text font-family="Ubuntu-Bold, Ubuntu" font-size="21" font-weight="bold">
          <tspan x="0" y="20">Welcome to Kate’s Site!</tspan>
        </text>
        <text font-family="Ubuntu" font-size="16">
          <tspan x="0" y="53">It’s currently under development…</tspan> <tspan x="0" y="73">Check back soon!</tspan>
        </text>
      </g>
    </g>

    <g class="terminal" filter="url(#ngrok-demo-e)">
      <mask id="ngrok-demo-g" fill="#fff">
        <use xlink:href="#ngrok-demo-f"/>
      </mask>
      <use fill="#222" xlink:href="#ngrok-demo-f"/>
      <rect width="600" height="320" fill="#222" mask="url(#ngrok-demo-g)" rx="10"/>
      <g class="python-text" font-size="18" mask="url(#ngrok-demo-g)">
        <g transform="translate(16 8)">
          <text font-family="UbuntuMono-Bold, Ubuntu Mono" font-weight="bold">
            <tspan x="0" y="18" fill="#EBCE13">$</tspan>
          </text>
          <text font-family="UbuntuMono-Regular, Ubuntu Mono">
            <tspan class="command" x="20" y="18" fill="#BBB">node app.js</tspan>
            <tspan class="response" x="20" y="40" fill="#BBB">Serving app.js port 3000</tspan>
          </text>
        </g>
      </g>
      <g class="ngrok-text" font-size="18" mask="url(#ngrok-demo-g)">
        <g transform="translate(16 74)">
          <text font-family="UbuntuMono-Bold, Ubuntu Mono" font-weight="bold">
            <tspan x="0" y="15" fill="#EBCE13">$</tspan>
          </text>
          <text font-family="UbuntuMono-Regular, Ubuntu Mono">
            <tspan class="command" x="20" y="15" fill="#FFF">./ngrok http 3000</tspan>
          </text>
          <text class="response" font-family="UbuntuMono-Regular, Ubuntu Mono">
            <tspan x="20" y="37" fill="#7CE3F7">ngrok</tspan>
            <tspan x="74" y="37" fill="#FFF">by</tspan>
            <tspan x="102" y="37" fill="#7CE3F7">@inconshreveable</tspan>
            <tspan x="20" y="81" fill="#EBCE13">Session Status</tspan>
            <tspan x="180" y="81" fill="#EBCE13">online</tspan>
            <tspan x="20" y="103" fill="#FFF">Account</tspan>
            <tspan x="180" y="103" fill="#FFF">Kate Libby (Plan: Pro)</tspan>
            <tspan x="20" y="125" fill="#FFF">Web Interface</tspan>
            <tspan x="180" y="125" fill="#FFF">http://127.0.0.1:4040</tspan>
            <tspan x="20" y="147" fill="#FFF">Forwarding</tspan>
            <tspan x="180" y="147" fill="#FFF">http://katesapp.ngrok.io -&gt; localhost:3000</tspan>
            <tspan x="20" y="169" fill="#FFF">Forwarding</tspan>
            <tspan x="180" y="169" fill="#FFF">https://katesapp.ngrok.io -&gt; localhost:3000</tspan>
          </text>
        </g>
      </g>
    </g>
  </g>
</svg>