<svg width="33" height="20" viewBox="0 0 33 20" fill="none"><title>Olark Logo</title><path d="M31.8168 13.009C31.696 13.018 31.6619 13.1879 31.1622 13.2253L30.0646 13.3073C30.0634 13.3063 30.0623 13.305 30.0609 13.3041L9.9118 14.8082C9.69341 14.8245 9.48406 14.9243 9.32973 15.0858L7.02488 17.4978L7.02381 15.2559C7.02366 15.117 6.90764 15.0131 6.7648 15.0238L4.00754 15.2296L0.757554 15.44C0.344064 15.4709 -0.000153206 15.8479 5.11571e-08 16.4001C0.000153309 16.6345 0.0692726 16.9305 0.189733 16.9215C0.310501 16.9124 0.344677 16.7425 0.844451 16.7053L5.48679 16.3588C5.63299 16.3535 5.75039 16.4601 5.75054 16.6036L5.75208 19.6384C5.75238 19.9857 6.18488 20.1276 6.43775 19.863L9.8531 16.2891C10.0107 16.1242 10.2244 16.0222 10.4473 16.0056L24.2839 14.9727L31.249 14.4905C31.6625 14.4596 32.0067 14.0826 32.0064 13.5304C32.0064 13.296 31.9373 12.9999 31.8168 13.009Z" fill="#3D3683"></path><path d="M31.0489 8.72521C31.2643 7.63233 32.2328 8.38604 32.0894 8.96187C31.7665 9.93958 30.8875 11.7898 29.2554 11.917C27.8385 12.0273 26.9058 10.5122 26.9058 9.34792C26.9058 8.80103 28.574 8.10672 28.574 6.48354C28.574 6.04247 28.3407 5.76073 27.9999 5.78726C27.5694 5.82088 26.7623 6.44826 26.2063 8.36147V11.3959C26.2063 11.7311 26.2242 12.1531 25.7041 12.1936C25.3476 12.2215 24.8501 12.1377 24.8438 11.4961C24.4504 11.9771 23.9321 12.3317 23.2469 12.385C22.404 12.4506 21.3995 12.0703 21.3995 10.5178C21.3995 9.38877 21.7903 8.52909 22.3643 6.96726L20.7359 6.67061C20.718 7.3601 20.6104 8.90323 20.2875 9.95164C20.282 9.96988 20.2741 9.98389 20.2677 10.0006C19.9437 11.174 19.2245 12.6984 17.7406 12.8139C17.1129 12.8627 16.6286 12.6006 16.3595 12.1981C16.0008 12.6318 15.4986 12.9885 14.8171 13.0417C14.0062 13.1048 13.42 12.7577 13.0689 12.1644C12.6045 12.7667 11.976 13.263 11.1582 13.3267C9.7772 13.4342 9.04171 12.5564 9.04171 11.1628V4.94387C8.66623 5.25997 8.25228 5.54713 7.94776 5.69079C8.01948 6.17934 8.05535 6.65282 8.05535 7.07625C8.05535 11.5395 6.08246 13.7221 3.9839 13.8855C1.36518 14.0895 0.00195312 11.6023 0.00195312 8.44438C0.00195312 2.44639 3.62512 0.788088 3.76857 0.724023C3.82252 0.702165 3.89409 0.678801 3.96597 0.673223C4.36045 0.642472 4.59371 1.15363 4.59371 1.54179C4.59371 1.77107 4.52199 1.95317 4.36045 1.96568C4.32459 1.96854 4.30666 1.97005 4.2708 1.95497C3.64305 2.3567 1.43691 3.64011 1.43691 8.15631C1.43691 11.3493 2.76427 12.6573 4.03769 12.5582C5.52629 12.4422 6.63832 10.4856 6.65641 7.18509C6.65641 6.84999 6.63832 6.48097 6.60246 6.11317L6.26177 6.1397C4.77302 6.25562 3.57133 5.48488 3.57133 4.12655C3.57133 3.20899 4.23494 2.39876 5.20353 2.32339C6.51281 2.22148 7.26622 3.18593 7.66071 4.39004C8.15711 4.16152 8.74715 3.59911 9.04171 3.29069V3.13588C9.04171 1.81283 9.7772 0.820497 10.6739 0.750704C12.2522 0.627699 12.2702 2.4788 12.2702 3.46645C12.2702 6.05995 10.638 9.75055 10.4048 9.98043V11.0037C10.4048 11.7093 10.6918 12.1986 11.3554 12.1469C11.9378 12.1017 12.412 11.5107 12.698 10.8897C12.6889 10.7768 12.6827 10.6621 12.6827 10.544C12.6827 7.59796 14.7633 5.63637 16.9515 5.46588C17.4356 5.4282 17.7765 5.68386 17.7765 6.14256C17.7765 6.44253 17.7227 6.55258 17.5434 6.56644C17.382 6.57911 17.2025 6.5577 17.0232 6.57172C15.6602 6.67784 14.0637 7.94904 14.0637 10.4892C14.0637 11.4067 14.4583 11.9052 15.0862 11.8564C15.5703 11.8187 15.8933 11.37 16.0905 10.8606V8.14395C16.0905 7.8087 16.0188 7.70846 16.0188 7.585C16.0188 7.40863 16.2341 7.26829 16.4851 7.2487C17.077 7.20272 17.4537 7.52606 17.4537 7.94964V10.8603C17.4537 11.2485 17.633 11.6579 18.0635 11.6246C18.7809 11.5686 19.1039 10.4143 19.2652 9.62558C19.2683 9.60975 19.2726 9.59649 19.276 9.58142C19.2786 9.56619 19.279 9.55127 19.283 9.53589C19.4804 8.8149 19.552 7.34502 19.5701 6.44389C19.1216 6.2318 18.7987 5.8866 18.7987 5.37499C18.7987 4.88086 19.2292 4.52978 19.6956 4.4936C20.1259 4.45999 20.6282 4.63259 20.8254 5.34047C21.6559 5.45111 22.7768 5.68265 22.7768 5.68265C23.2498 5.77792 23.7096 6.19215 23.6378 6.60353C23.6378 6.81517 22.7626 8.54145 22.7626 10.3057C22.7626 10.7997 22.9958 11.2403 23.4801 11.2025C24.3051 11.1383 24.6101 9.98555 24.7715 9.19657C24.7893 9.10326 24.8138 9.02262 24.8432 8.95358V0.899485C24.8432 0.38787 24.6637 0.366616 24.6637 0.243159C24.6637 0.119551 24.9867 0.0239815 25.2377 0.00438519C25.8297 -0.0417416 26.2063 0.281749 26.2063 0.70518V6.20934C26.7802 5.3884 27.4978 4.6445 28.3048 4.58164C29.4169 4.49496 29.9012 5.37469 29.9012 6.36249C29.9012 7.72097 28.8967 8.8048 28.1792 9.37219C28.3586 10.1168 28.7531 10.7917 29.4527 10.7373C30.2777 10.6731 30.8876 9.51403 31.0489 8.72521ZM6.20798 4.92668L6.42315 4.9101C6.24384 4.11253 5.88506 3.54062 5.32904 3.58388C4.97027 3.61177 4.88061 3.86577 4.88061 4.05992C4.88061 4.4832 5.27525 4.99934 6.20798 4.92668ZM10.4048 2.6416V7.66942C10.7815 6.89913 11.1582 4.54109 11.1582 3.57092C11.1582 2.40644 10.961 1.89272 10.6739 1.91503C10.4767 1.9304 10.4048 2.35941 10.4048 2.6416Z" fill="#3D3683"></path></svg>